<svg width="334" height="40" viewBox="0 0 334 40" fill="none" xmlns="http://www.w3.org/2000/svg">
<g clip-path="url(#clip0_888_2)">
<path d="M19.5528 17.1314C21.127 17.1314 22.403 15.8546 22.403 14.2796C22.403 12.7046 21.127 11.4277 19.5528 11.4277C17.9787 11.4277 16.7026 12.7046 16.7026 14.2796C16.7026 15.8546 17.9787 17.1314 19.5528 17.1314Z" fill="#FAFAFA"/>
<path d="M28.8778 17.1314C30.4519 17.1314 31.728 15.8546 31.728 14.2796C31.728 12.7046 30.4519 11.4277 28.8778 11.4277C27.3037 11.4277 26.0276 12.7046 26.0276 14.2796C26.0276 15.8546 27.3037 17.1314 28.8778 17.1314Z" fill="#FAFAFA"/>
<path d="M41.8004 8.3152C41.3238 8.3152 40.8603 8.36754 40.4118 8.46349C36.8434 3.34857 30.9222 0 24.2149 0C17.5085 0 11.5863 3.34954 8.01883 8.46397C7.57083 8.36802 7.10686 8.31569 6.63078 8.31569C2.96838 8.31569 0 11.2858 0 14.9493C0 17.8792 1.90046 20.3608 4.53369 21.2399C5.29261 31.4552 13.8113 39.5092 24.2149 39.5092C34.6189 39.5092 43.1376 31.4557 43.898 21.2399C46.5312 20.3608 48.4316 17.8792 48.4316 14.9493C48.4307 11.2853 45.4618 8.3152 41.8004 8.3152ZM4.86254 18.0532C3.24879 18.0532 1.94066 16.7443 1.94066 15.1291C1.94066 13.5144 3.24879 12.2055 4.86254 12.2055C6.47676 12.2055 7.7849 13.5149 7.7849 15.1291C7.7849 16.7448 6.47676 18.0532 4.86254 18.0532ZM24.2149 36.4756C17.2213 36.4756 11.3592 32.7215 9.7798 27.6681C13.0964 29.3622 18.3629 30.4065 24.2144 30.4065C30.0664 30.4065 35.3333 29.3622 38.6499 27.6681C37.0705 32.7215 31.2089 36.4756 24.2149 36.4756ZM39.0659 25.1312C36.7083 26.8825 31.3154 28.4459 24.2144 28.4459C17.1148 28.4459 11.7209 26.8825 9.36377 25.1317C9.36281 25.0677 9.35748 25.0042 9.35748 24.9398C9.35748 22.0996 10.6816 19.5002 12.8741 17.4901C12.059 16.3547 11.5747 14.9653 11.5747 13.4607C11.5747 9.63573 14.6729 6.53528 18.4956 6.53528C20.8721 6.53528 22.9682 7.73514 24.2144 9.5611C25.4605 7.73514 27.5557 6.53528 29.9332 6.53528C33.7564 6.53528 36.8545 9.63573 36.8545 13.4607C36.8545 14.9653 36.3697 16.3547 35.5551 17.4901C37.7471 19.5002 39.0717 22.0991 39.0717 24.9398C39.0717 25.0038 39.0669 25.0677 39.0659 25.1312ZM43.5672 18.0532C41.9525 18.0532 40.6453 16.7443 40.6453 15.1291C40.6453 13.5144 41.9525 12.2055 43.5672 12.2055C45.1804 12.2055 46.489 13.5149 46.489 15.1291C46.489 16.7448 45.1804 18.0532 43.5672 18.0532Z" fill="#FAFAFA"/>
<path d="M87.3467 3.87109C90.3563 3.87109 92.8348 6.34877 92.8348 9.40162V29.3115C92.8348 32.3644 90.3563 34.8421 87.3467 34.8421H70.9268V3.87109H87.3467ZM85.7534 26.2587V12.4545C85.7534 11.6138 85.0895 10.9944 84.2929 10.9944H78.0081V27.763H84.2929C85.0895 27.763 85.7534 27.0993 85.7534 26.2587ZM118.682 10.9944H106.289V15.817H115.185V22.8961H106.289V27.763H118.682V34.8421H99.208V3.87109H118.682V10.9944ZM137.226 22.0997L142.316 3.87109H149.397L140.767 34.8421H133.686L125.055 3.87109H132.136L137.226 22.0997ZM180.954 3.87109C184.008 3.87109 186.442 6.34877 186.442 9.40162V29.3115C186.442 32.3644 183.963 34.8421 180.909 34.8421H179.051V39.355H171.969V34.8421H170.066C167.012 34.8421 164.534 32.3644 164.534 29.3115V9.40162C164.534 6.34877 167.012 3.87109 170.066 3.87109H180.954ZM179.36 27.763V10.9944H171.615V27.763H179.36ZM207.642 27.763V3.87109H214.723V29.3558C214.723 32.4086 212.245 34.8421 209.191 34.8421H198.303C195.249 34.8421 192.815 32.4086 192.815 29.3558V3.87109H199.896V27.763H207.642ZM228.178 3.87109V34.8421H221.096V3.87109H228.178ZM254.025 3.87109V10.9944L242.872 27.763H254.025V34.8421H234.551V27.763L245.748 10.9944H234.551V3.87109H254.025ZM279.872 3.87109V10.9944L268.719 27.763H279.872V34.8421H260.398V27.763L271.595 10.9944H260.398V3.87109H279.872ZM305.719 10.9944H293.326V15.817H302.222V22.8961H293.326V27.763H305.719V34.8421H286.245V3.87109H305.719V10.9944ZM328.468 3.87109C331.522 3.87109 334 6.34877 334 9.40162V21.0379C334 23.3828 332.54 25.3738 330.504 26.1702L334 34.8421H326.476L323.112 26.5684H319.173V34.8421H312.092V3.87109H328.468ZM325.458 19.4451C326.255 19.4451 326.919 18.8256 326.919 18.0292V12.4102C326.919 11.6138 326.255 10.9944 325.458 10.9944H319.173V19.4451H325.458Z" fill="#FAFAFA"/>
</g>
<defs>
<clipPath id="clip0_888_2">
<rect width="334" height="40" fill="white"/>
</clipPath>
</defs>
</svg>
