<svg width="518" height="62" viewBox="0 0 518 62" fill="none" xmlns="http://www.w3.org/2000/svg">
<g clip-path="url(#clip0_888_2)">
<path d="M30.3244 26.5536C32.7657 26.5536 34.7448 24.5746 34.7448 22.1333C34.7448 19.692 32.7657 17.7129 30.3244 17.7129C27.8831 17.7129 25.9041 19.692 25.9041 22.1333C25.9041 24.5746 27.8831 26.5536 30.3244 26.5536Z" fill="#0F1021"/>
<path d="M44.7866 26.5536C47.2279 26.5536 49.207 24.5746 49.207 22.1333C49.207 19.692 47.2279 17.7129 44.7866 17.7129C42.3453 17.7129 40.3662 19.692 40.3662 22.1333C40.3662 24.5746 42.3453 26.5536 44.7866 26.5536Z" fill="#0F1021"/>
<path d="M64.8281 12.8886C64.089 12.8886 63.3702 12.9697 62.6747 13.1184C57.1404 5.19028 47.9571 0 37.5548 0C27.1539 0 17.9692 5.19178 12.4364 13.1192C11.7416 12.9704 11.022 12.8893 10.2837 12.8893C4.60365 12.8893 0 17.493 0 23.1715C0 27.7128 2.94742 31.5593 7.03129 32.9218C8.2083 48.7556 21.4198 61.2393 37.5548 61.2393C53.6905 61.2393 66.902 48.7563 68.0813 32.9218C72.1651 31.5593 75.1126 27.7128 75.1126 23.1715C75.111 17.4922 70.5066 12.8886 64.8281 12.8886ZM7.5413 27.9824C5.03855 27.9824 3.00976 25.9536 3.00976 23.4501C3.00976 20.9474 5.03855 18.9186 7.5413 18.9186C10.0448 18.9186 12.0736 20.9481 12.0736 23.4501C12.0736 25.9544 10.0448 27.9824 7.5413 27.9824ZM37.5548 56.5372C26.7085 56.5372 17.6169 50.7183 15.1675 42.8855C20.3112 45.5115 28.4789 47.1301 37.554 47.1301C46.6299 47.1301 54.7984 45.5115 59.9421 42.8855C57.4927 50.7183 48.4018 56.5372 37.5548 56.5372ZM60.5873 38.9534C56.9308 41.6679 48.567 44.0911 37.554 44.0911C26.5433 44.0911 18.178 41.6679 14.5223 38.9541C14.5208 38.855 14.5125 38.7566 14.5125 38.6567C14.5125 34.2543 16.5661 30.2253 19.9664 27.1096C18.7023 25.3497 17.9511 23.1963 17.9511 20.864C17.9511 14.9354 22.7561 10.1297 28.6847 10.1297C32.3705 10.1297 35.6214 11.9895 37.554 14.8197C39.4867 11.9895 42.736 10.1297 46.4233 10.1297C52.3527 10.1297 57.1576 14.9354 57.1576 20.864C57.1576 23.1963 56.4058 25.3497 55.1424 27.1096C58.542 30.2253 60.5963 34.2536 60.5963 38.6567C60.5963 38.7558 60.5888 38.855 60.5873 38.9534ZM67.5682 27.9824C65.064 27.9824 63.0367 25.9536 63.0367 23.4501C63.0367 20.9474 65.064 18.9186 67.5682 18.9186C70.0702 18.9186 72.0998 20.9481 72.0998 23.4501C72.0998 25.9544 70.0702 27.9824 67.5682 27.9824Z" fill="#0F1021"/>
<path d="M135.466 6C140.133 6 143.977 9.8404 143.977 14.5723V45.4327C143.977 50.1646 140.133 54.005 135.466 54.005H110V6H135.466ZM132.995 40.7007V19.3042C132.995 18.0012 131.965 17.0411 130.729 17.0411H120.983V43.0324H130.729C131.965 43.0324 132.995 42.0037 132.995 40.7007ZM184.063 17.0411H164.844V24.5162H178.641V35.4888H164.844V43.0324H184.063V54.005H153.861V6H184.063V17.0411ZM212.824 34.2544L220.717 6H231.7L218.315 54.005H207.332L193.948 6H204.93L212.824 34.2544ZM280.641 6C285.377 6 289.152 9.8404 289.152 14.5723V45.4327C289.152 50.1646 285.308 54.005 280.572 54.005H277.689V61H266.707V54.005H263.755C259.019 54.005 255.175 50.1646 255.175 45.4327V14.5723C255.175 9.8404 259.019 6 263.755 6H280.641ZM278.17 43.0324V17.0411H266.157V43.0324H278.17ZM322.031 43.0324V6H333.013V45.5012C333.013 50.2332 329.17 54.005 324.433 54.005H307.548C302.812 54.005 299.036 50.2332 299.036 45.5012V6H310.019V43.0324H322.031ZM353.88 6V54.005H342.898V6H353.88ZM393.966 6V17.0411L376.669 43.0324H393.966V54.005H363.764V43.0324L381.131 17.0411H363.764V6H393.966ZM434.053 6V17.0411L416.755 43.0324H434.053V54.005H403.851V43.0324L421.217 17.0411H403.851V6H434.053ZM474.139 17.0411H454.919V24.5162H468.716V35.4888H454.919V43.0324H474.139V54.005H443.937V6H474.139V17.0411ZM509.42 6C514.156 6 518 9.8404 518 14.5723V32.6085C518 36.2431 515.735 39.3292 512.577 40.5636L518 54.005H506.331L501.114 41.1808H495.005V54.005H484.023V6H509.42ZM504.752 30.1397C505.988 30.1397 507.018 29.1795 507.018 27.9451V19.2357C507.018 18.0012 505.988 17.0411 504.752 17.0411H495.005V30.1397H504.752Z" fill="#0F1021"/>
</g>
<defs>
<clipPath id="clip0_888_2">
<rect width="518" height="62" fill="white"/>
</clipPath>
</defs>
</svg>
